<svg xmlns="http://www.w3.org/2000/svg" width="365.007" height="666.14" viewBox="0 0 365.007 666.14">
  <g id="Group_2" data-name="Group 2" transform="translate(-564.001 962.687)">
    <path id="Path_10" data-name="Path 10" d="M-247.5-153.286S-273.421-117-303.672-74.5A431.945,431.945,0,0,0-335.129,32.38c-5.858,37.718-7.586,85.6,4.769,136.6C-291.02,113.52-242.6,45.315-219.821,13.255c38.191-53.719,35.2-113.615-27.681-166.541" transform="translate(999.333 -809.401)" fill="#ffd600"/>
    <path id="Path_11" data-name="Path 11" d="M-254.157-63.086a436.741,436.741,0,0,1,21.126-81.507c-20.629,28.877-56.228,78.821-73.7,103.981-29.717,42.831-61.245,108.621-24.119,165.606,47.221,72.477,122.5,74.477,140.717,73.826A323.373,323.373,0,0,1-247.885,82.046c-14.166-54.192-12.5-105.236-6.273-145.131" transform="translate(911.71 -715.213)" fill="#ffd600"/>
    <path id="Path_12" data-name="Path 12" d="M-284.563,198.035s25.919-36.286,56.168-78.785A431.423,431.423,0,0,0-196.937,12.369c5.858-37.718,7.586-85.6-4.758-136.6C-241.046-68.771-289.462-.567-312.245,31.494c-38.191,53.719-35.2,113.615,27.682,166.541" transform="translate(1025.729 -494.582)" fill="#ffd600"/>
    <path id="Path_13" data-name="Path 13" d="M-266.156,127.265a437.942,437.942,0,0,1-21.125,81.507c20.628-28.877,56.228-78.821,73.684-103.981C-183.868,61.96-152.34-3.83-189.466-60.815c-47.221-72.477-122.5-74.477-140.717-73.826A323.38,323.38,0,0,1-272.429-17.866c14.167,54.192,12.5,105.224,6.272,145.131" transform="translate(1101.611 -608.2)" fill="#ffd600"/>
  </g>
</svg>
